SplineFontDB: 3.2
FontName: CatyuBasic
FullName: CatyuBasic
FamilyName: CatyuBasic
Weight: Book
Copyright: Copyright (c) 2021, Craig Cornelius
UComments: "This is a first attempt at a font for Catyu, a new script for Wolof."
Version: 001.000
ItalicAngle: -51.2
UnderlinePosition: -101
UnderlineWidth: 50
Ascent: 819
Descent: 205
InvalidEm: 0
sfntRevision: 0x00010000
LayerCount: 2
Layer: 0 1 "Back" 1
Layer: 1 1 "Fore" 0
XUID: [1021 341 221541093 1985200]
BaseHoriz: 1 'icfb'
StyleMap: 0x0000
FSType: 0
OS2Version: 4
OS2_WeightWidthSlopeOnly: 0
OS2_UseTypoMetrics: 1
CreationTime: 1621133145
ModificationTime: 1621915582
PfmFamily: 17
TTFWeight: 400
TTFWidth: 5
LineGap: 92
VLineGap: 0
Panose: 2 0 5 9 0 0 0 0 0 0
OS2TypoAscent: 819
OS2TypoAOffset: 0
OS2TypoDescent: -205
OS2TypoDOffset: 0
OS2TypoLinegap: 92
OS2WinAscent: 793
OS2WinAOffset: 0
OS2WinDescent: 227
OS2WinDOffset: 0
HheadAscent: 793
HheadAOffset: 0
HheadDescent: -227
HheadDOffset: 0
OS2SubXSize: 666
OS2SubYSize: 717
OS2SubXOff: 0
OS2SubYOff: 143
OS2SupXSize: 666
OS2SupYSize: 717
OS2SupXOff: 0
OS2SupYOff: 492
OS2StrikeYSize: 50
OS2StrikeYPos: 264
OS2CapHeight: 743
OS2XHeight: 727
OS2Vendor: 'PfEd'
OS2CodePages: 00000001.00000000
OS2UnicodeRanges: 00000001.00000000.00000000.00000000
Lookup: 260 0 0 "Catyu consonant lengther" { "Catyu consonant lengther-1"  } []
MarkAttachClasses: 1
DEI: 91125
ShortTable: cvt  2
  33
  633
EndShort
ShortTable: maxp 16
  1
  0
  43
  99
  6
  0
  0
  2
  0
  1
  1
  0
  64
  46
  0
  0
EndShort
LangName: 1033 "" "" "Regular" "FontForge 2.0 : CatyuBasic : 17-5-2021"
GaspTable: 1 65535 2 0
Encoding: Custom
Compacted: 1
UnicodeInterp: none
NameList: AGL For New Fonts
DisplaySize: -96
AntiAlias: 1
FitToEm: 1
WinInfo: 40 8 4
BeginPrivate: 0
EndPrivate
Grid
857.215820312 1331 m 0
 857.215820312 -717 l 1024
  Named: "top"
-1024 168 m 0
 2048 168 l 1024
  Named: "-825"
-148.918945312 1331 m 0
 -148.918945312 -717 l 1024
  Named: "-825"
185 1331 m 0
 185 -717 l 1024
  Named: "Lowest"

StartChar: .notdef
Encoding: 59 -1 0
Width: 595
VWidth: 681
Flags: W
LayerCount: 2
Fore
SplineSet
102 171 m 1,0,-1
 102 512 l 1,1,-1
 238 512 l 1,2,-1
 238 171 l 1,3,-1
 102 171 l 1,0,-1
119 187 m 1,4,-1
 220 187 l 1,5,-1
 220 495 l 1,6,-1
 119 495 l 1,7,-1
 119 187 l 1,4,-1
EndSplineSet
Validated: 1
EndChar

StartChar: .null
Encoding: 60 -1 1
Width: 712
VWidth: 406
Flags: W
LayerCount: 2
Fore
SplineSet
208 -459 m 0,0,1
 184 -485 184 -485 190 -476 c 0,2,3
 209 -430 209 -430 346 -278 c 0,4,5
 454 -152 454 -152 510 -116 c 0,6,7
 583 -69 583 -69 696 -69 c 0,8,9
 722 -69 722 -69 751 -72 c 0,10,11
 816 -78 816 -78 817 -94 c 0,12,13
 817 -95 l 0,14,15
 817 -105 817 -105 773 -111 c 0,16,17
 492 -154 492 -154 208 -459 c 0,0,1
EndSplineSet
Validated: 1
EndChar

StartChar: lower_dot
Encoding: 61 -1 2
Width: 332
VWidth: 390
Flags: W
LayerCount: 2
Fore
SplineSet
136 -272 m 128,-1,1
 122 -264 122 -264 123 -246.5 c 128,-1,2
 124 -229 124 -229 139 -216 c 128,-1,3
 154 -203 154 -203 173.5 -203.5 c 128,-1,4
 193 -204 193 -204 201.5 -219 c 128,-1,5
 210 -234 210 -234 209.5 -251 c 128,-1,6
 209 -268 209 -268 196 -275.5 c 128,-1,7
 183 -283 183 -283 166.5 -281.5 c 128,-1,0
 150 -280 150 -280 136 -272 c 128,-1,1
EndSplineSet
Validated: 33
EndChar

StartChar: exclam
Encoding: 0 33 3
Width: 460
VWidth: 714
Flags: W
LayerCount: 2
Fore
SplineSet
155 268 m 0,0,1
 157 305 157 305 184 329 c 0,2,3
 209 351 209 351 242 350 c 0,4,5
 245 350 245 350 248 350 c 0,6,7
 279 349 279 349 295 322 c 0,8,9
 310 298 310 298 310 268 c 0,10,11
 310 264 310 264 310 260 c 0,12,13
 309 235 309 235 287 223 c 0,14,15
 266 211 266 211 241 211 c 0,16,17
 239 211 239 211 237 211 c 0,18,19
 202 213 202 213 177 227 c 0,20,21
 154 240 154 240 154 264 c 0,22,23
 155 266 155 266 155 268 c 0,0,1
34 70 m 0,24,25
 36 107 36 107 63 130 c 0,26,27
 88 152 88 152 121 152 c 0,28,29
 124 152 124 152 127 152 c 0,30,31
 158 151 158 151 174 123 c 0,32,33
 189 98 189 98 189 69 c 0,34,35
 189 65 189 65 188 61 c 0,36,37
 187 36 187 36 165 24 c 0,38,39
 146 12 146 12 123 12 c 0,40,41
 119 12 119 12 116 12 c 0,42,43
 81 14 81 14 56 29 c 0,44,45
 33 42 33 42 34 66 c 0,46,47
 34 68 34 68 34 70 c 0,24,25
266 70 m 0,48,49
 268 107 268 107 295 130 c 0,50,51
 319 152 319 152 353 152 c 0,52,53
 356 152 356 152 359 152 c 0,54,55
 390 151 390 151 407 123 c 0,56,57
 422 98 422 98 421 69 c 0,58,59
 421 65 421 65 421 61 c 0,60,61
 420 36 420 36 397 24 c 0,62,63
 377 12 377 12 355 12 c 0,64,65
 352 12 352 12 348 12 c 0,66,67
 313 14 313 14 289 29 c 0,68,69
 266 42 266 42 266 66 c 0,70,71
 266 68 266 68 266 70 c 0,48,49
EndSplineSet
Validated: 33
EndChar

StartChar: period
Encoding: 2 46 5
Width: 119
VWidth: 592
Flags: W
LayerCount: 2
Fore
SplineSet
75 185 m 0,0,1
 43 185 43 185 43 160 c 0,2,3
 43 138 43 138 69 138 c 0,4,5
 72 138 72 138 75 138 c 0,6,7
 97 138 97 138 95.5 161.5 c 128,-1,8
 94 185 94 185 75 185 c 0,0,1
44 137.5 m 128,-1,10
 33 144 33 144 34 159 c 128,-1,11
 35 174 35 174 47 185 c 128,-1,12
 59 196 59 196 75 195.5 c 128,-1,13
 91 195 91 195 98.5 182 c 128,-1,14
 106 169 106 169 105.5 155 c 128,-1,15
 105 141 105 141 95 135 c 128,-1,16
 85 129 85 129 70 130 c 128,-1,9
 55 131 55 131 44 137.5 c 128,-1,10
EndSplineSet
Validated: 1
EndChar

StartChar: question
Encoding: 13 63 6
Width: 262
VWidth: 738
Flags: W
LayerCount: 2
Fore
SplineSet
130 -70 m 0,0,1
 132 -19 132 -19 170 14 c 0,2,3
 204 43 204 43 248 43 c 0,4,5
 254 43 254 43 259 43 c 0,6,7
 302 41 302 41 325 3 c 0,8,9
 346 -32 346 -32 345 -75 c 0,10,11
 345 -79 345 -79 345 -82 c 0,12,13
 343 -117 343 -117 313 -136 c 0,14,15
 288 -151 288 -151 258 -151 c 0,16,17
 252 -151 252 -151 245 -150 c 0,18,19
 198 -148 198 -148 163 -127 c 0,20,21
 130 -108 130 -108 130 -74 c 0,22,23
 130 -72 130 -72 130 -70 c 0,0,1
521 761 m 0,24,25
 593 675 593 675 593 585 c 0,26,27
 593 448 593 448 429 301 c 0,28,29
 256 145 256 145 124 145 c 0,30,31
 21 145 21 145 -56 239 c 0,32,33
 -116 311 -116 311 -116 392 c 0,34,35
 -116 540 -116 540 83 718 c 0,36,37
 230 852 230 852 348 852 c 0,38,39
 444 852 444 852 521 761 c 0,24,25
458 702 m 0,40,41
 410 767 410 767 336 767 c 0,42,43
 244 767 244 767 110 667 c 0,44,45
 -61 538 -61 538 -61 422 c 0,46,47
 -61 339 -61 339 26 262 c 0,48,49
 108 190 108 190 184 190 c 0,50,51
 292 190 292 190 390 331 c 0,52,53
 494 480 494 480 495 588 c 0,54,55
 495 652 495 652 458 702 c 0,40,41
EndSplineSet
Validated: 33
EndChar

StartChar: D
Encoding: 15 68 8
Width: 1059
VWidth: 889
Flags: W
AnchorPoint: "top" 668 790 basechar 0
LayerCount: 2
Fore
SplineSet
972 46 m 0,0,1
 951 39 951 39 926 39 c 0,2,3
 879 39 879 39 817 63 c 1,4,-1
 629 49 l 1,5,6
 529 95 529 95 529 153 c 0,7,8
 529 169 529 169 537 186 c 0,9,10
 580 279 580 279 587 280 c 0,11,12
 589 280 589 280 589 275 c 0,13,14
 589 270 589 270 587 260 c 0,15,16
 585 249 585 249 581 175 c 0,17,18
 581 171 581 171 580 168 c 0,19,20
 580 83 580 83 670 83 c 0,21,22
 739 83 739 83 739 109 c 0,23,24
 739 111 739 111 738 114 c 1,25,-1
 689 237 l 1,26,27
 711 293 711 293 723 293 c 0,28,29
 727 293 727 293 730 285 c 0,30,31
 789 105 789 105 818 92 c 0,32,33
 851 78 851 78 879 78 c 0,34,35
 919 78 919 78 948 108 c 8,36,-1
 834 274 l 1,37,-1
 854 309 l 1,38,39
 883 251 883 251 1009 119 c 0,40,41
 1025 103 1025 103 1024 89 c 0,42,43
 1024 63 1024 63 972 46 c 0,0,1
80 114 m 1,44,45
 619 542 619 542 621 685 c 0,46,47
 622 732 622 732 663 732 c 0,48,49
 706 732 706 732 710 715 c 0,50,51
 711 709 711 709 711 702 c 0,52,53
 711 563 711 563 110 96 c 1,54,55
 149 72 149 72 254 60 c 0,56,57
 281 57 281 57 314 57 c 0,58,59
 393 57 393 57 510 76 c 1,60,61
 532 51 532 51 532 36 c 0,62,63
 532 16 532 16 493 15 c 0,64,65
 449 13 449 13 404 13 c 0,66,67
 288 13 288 13 170 29 c 0,68,69
 78 41 78 41 34 78 c 1,70,-1
 78 116 l 2,71,-1
 80 114 l 1,44,45
EndSplineSet
Validated: 33
EndChar

StartChar: G
Encoding: 17 71 10
Width: 1059
VWidth: 724
Flags: W
AnchorPoint: "top" 1019 970 basechar 0
LayerCount: 2
Fore
SplineSet
846 -106 m 0
 848 -72 848 -72 872 -50 c 0
 895 -29 895 -29 929 -30 c 0
 931 -30 931 -30 932 -30 c 0
 961 -31 961 -31 976 -57 c 0
 990 -80 990 -80 989 -107 c 0
 989 -111 989 -111 989 -114 c 0
 988 -137 988 -137 968 -150 c 0
 952 -160 952 -160 931 -159 c 0
 926 -159 926 -159 921 -159 c 0
 889 -157 889 -157 866 -144 c 0
 845 -132 845 -132 846 -111 c 0
 846 -108 846 -108 846 -106 c 0
666 -106 m 0
 668 -72 668 -72 692 -50 c 0
 714 -29 714 -29 748 -30 c 0
 750 -30 750 -30 752 -30 c 0
 781 -31 781 -31 797 -57 c 0
 810 -79 810 -79 809 -106 c 0
 809 -110 809 -110 809 -114 c 0
 808 -137 808 -137 787 -150 c 0
 770 -160 770 -160 750 -159 c 0
 745 -159 745 -159 740 -159 c 0
 708 -157 708 -157 686 -144 c 0
 665 -132 665 -132 666 -109 c 0
 666 -107 666 -107 666 -106 c 0
EndSplineSet
Refer: 8 68 N 1 0 0 1 0 0 2
Validated: 98337
EndChar

StartChar: J
Encoding: 18 74 11
Width: 1059
VWidth: 724
Flags: W
AnchorPoint: "top" 944 970 basechar 0
LayerCount: 2
Fore
SplineSet
696 -111 m 0
 698 -77 698 -77 723 -55 c 0
 746 -34 746 -34 779 -35 c 0
 781 -35 781 -35 782 -35 c 0
 811 -36 811 -36 826 -62 c 0
 840 -85 840 -85 840 -112 c 0
 840 -116 840 -116 840 -119 c 0
 839 -142 839 -142 818 -154 c 0
 800 -165 800 -165 779 -164 c 0
 775 -164 775 -164 771 -164 c 0
 739 -162 739 -162 717 -150 c 0
 696 -137 696 -137 696 -115 c 0
 696 -113 696 -113 696 -111 c 0
EndSplineSet
Refer: 8 68 N 1 0 0 1 0 0 2
Validated: 98337
EndChar

StartChar: M
Encoding: 19 77 12
Width: 769
VWidth: 813
Flags: W
LayerCount: 2
Fore
SplineSet
389 -109 m 0
 390 -83 390 -83 410 -67 c 0
 427 -52 427 -52 451 -51 c 0
 452 -51 452 -51 454 -51 c 0
 476 -52 476 -52 486 -72 c 0
 496 -90 496 -90 497 -110 c 0
 497 -112 497 -112 497 -114 c 0
 496 -131 496 -131 480 -140 c 0
 467 -148 467 -148 452 -148 c 0
 449 -148 449 -148 445 -147 c 0
 421 -146 421 -146 404 -136 c 0
 388 -127 388 -127 389 -109 c 0
254 -109 m 0
 255 -83 255 -83 274 -67 c 0
 292 -52 292 -52 318 -51 c 0
 340 -52 340 -52 352 -72 c 0
 362 -88 362 -88 362 -107 c 0
 362 -110 362 -110 361 -114 c 0
 360 -131 360 -131 345 -140 c 0
 332 -148 332 -148 317 -148 c 0
 314 -148 314 -148 310 -147 c 0
 286 -146 286 -146 269 -136 c 0
 253 -128 253 -128 254 -109 c 0
EndSplineSet
Refer: 28 110 N 1 0 0 1 0 0 2
Validated: 98309
EndChar

StartChar: bracketleft
Encoding: 20 91 13
Width: 124
VWidth: 784
Flags: W
LayerCount: 2
Fore
SplineSet
61 502.5 m 128,-1,1
 59 511 59 511 66 513 c 0,2,3
 77 516 77 516 78 506 c 0,4,5
 80 495 80 495 71.5 494.5 c 128,-1,0
 63 494 63 494 61 502.5 c 128,-1,1
76 587 m 0,6,7
 44 587 44 587 44 561 c 0,8,9
 44 539 44 539 70 539 c 0,10,11
 73 539 73 539 76 540 c 0,12,13
 98 540 98 540 96.5 563.5 c 128,-1,14
 95 587 95 587 76 587 c 0,6,7
45 539 m 128,-1,16
 34 546 34 546 35 560.5 c 128,-1,17
 36 575 36 575 48 586 c 128,-1,18
 60 597 60 597 76 596.5 c 128,-1,19
 92 596 92 596 99 583 c 128,-1,20
 106 570 106 570 106 556.5 c 128,-1,21
 106 543 106 543 95.5 536.5 c 128,-1,22
 85 530 85 530 70.5 531 c 128,-1,15
 56 532 56 532 45 539 c 128,-1,16
EndSplineSet
Validated: 1
EndChar

StartChar: bracketright
Encoding: 21 93 14
Width: 158
VWidth: 802
Flags: W
LayerCount: 2
Fore
SplineSet
35.5 578 m 128,-1,1
 34 587 34 587 40 589 c 0,2,3
 51 592 51 592 52 581 c 128,-1,4
 53 570 53 570 45 569.5 c 128,-1,0
 37 569 37 569 35.5 578 c 128,-1,1
112 606 m 0,5,6
 80 606 80 606 80 580 c 0,7,8
 80 558 80 558 105 558 c 0,9,10
 107 558 107 558 111 558 c 0,11,12
 133 558 133 558 132 578 c 0,13,14
 131 606 131 606 112 606 c 0,5,6
80 558 m 128,-1,16
 69 564 69 564 70 579 c 128,-1,17
 71 594 71 594 83.5 604.5 c 128,-1,18
 96 615 96 615 111.5 615 c 128,-1,19
 127 615 127 615 134.5 602 c 128,-1,20
 142 589 142 589 142 575 c 0,21,22
 141 551 141 551 113 551 c 0,23,24
 110 551 110 551 108 551 c 0,25,15
 91 552 91 552 80 558 c 128,-1,16
EndSplineSet
Validated: 1
EndChar

StartChar: underscore
Encoding: 23 95 16
Width: 312
VWidth: 592
Flags: W
LayerCount: 2
Fore
SplineSet
250 185 m 0,0,1
 217 185 217 185 217 158 c 0,2,3
 217 138 217 138 244 138 c 0,4,5
 247 138 247 138 249 138 c 0,6,7
 271 138 271 138 270 158 c 0,8,9
 269 185 269 185 250 185 c 0,0,1
218 137.5 m 128,-1,11
 207 144 207 144 208 159 c 128,-1,12
 209 174 209 174 221.5 185 c 128,-1,13
 234 196 234 196 249.5 195.5 c 128,-1,14
 265 195 265 195 273 182 c 128,-1,15
 281 169 281 169 280.5 155 c 128,-1,16
 280 141 280 141 269 135 c 128,-1,17
 258 129 258 129 243.5 130 c 128,-1,10
 229 131 229 131 218 137.5 c 128,-1,11
76 185 m 0,18,19
 43 185 43 185 43 158 c 0,20,21
 43 136 43 136 75 138 c 0,22,23
 97 138 97 138 96 158 c 0,24,25
 95 185 95 185 76 185 c 0,18,19
44 137.5 m 128,-1,27
 33 144 33 144 34 159 c 128,-1,28
 35 174 35 174 47.5 185 c 128,-1,29
 60 196 60 196 75.5 195.5 c 128,-1,30
 91 195 91 195 98.5 182 c 128,-1,31
 106 169 106 169 105.5 155 c 128,-1,32
 105 141 105 141 95 135 c 128,-1,33
 85 129 85 129 70 130 c 128,-1,26
 55 131 55 131 44 137.5 c 128,-1,27
162 185 m 0,34,35
 130 185 130 185 130 160 c 0,36,37
 130 136 130 136 162 138 c 0,38,39
 184 138 184 138 182.5 161.5 c 128,-1,40
 181 185 181 185 162 185 c 0,34,35
131 137.5 m 128,-1,42
 120 144 120 144 121 159 c 128,-1,43
 122 174 122 174 134 185 c 128,-1,44
 146 196 146 196 162 195.5 c 128,-1,45
 178 195 178 195 186 182 c 128,-1,46
 194 169 194 169 193.5 155 c 128,-1,47
 193 141 193 141 182 135 c 128,-1,48
 171 129 171 129 156.5 130 c 128,-1,41
 142 131 142 131 131 137.5 c 128,-1,42
EndSplineSet
Validated: 33
EndChar

StartChar: a
Encoding: 24 97 17
Width: 553
VWidth: 710
Flags: W
LayerCount: 2
Fore
SplineSet
436 46 m 1024,0,-1
268 430 m 1,1,-1
 120 55 l 1,2,-1
 436 46 l 1,3,-1
 268 430 l 1,1,-1
515 31 m 0,4,5
 515 1 515 1 377.5 2.5 c 128,-1,6
 240 4 240 4 158 7 c 0,7,8
 76 10 76 10 67 10 c 0,9,10
 55 10 55 10 101 154 c 0,11,12
 138 267 138 267 191.5 397 c 128,-1,13
 245 527 245 527 258 527 c 0,14,15
 280 527 280 527 375 352 c 0,16,17
 514 97 514 97 515 31 c 0,4,5
EndSplineSet
Validated: 33
EndChar

StartChar: e
Encoding: 28 101 20
Width: 656
VWidth: 710
Flags: W
LayerCount: 2
Fore
SplineSet
39 69 m 0,0,1
 7 148 7 148 189 413 c 0,2,3
 270 528 270 528 353 527 c 0,4,5
 355 527 355 527 357 527 c 0,6,7
 429 525 429 525 471 455 c 0,8,9
 616 204 616 204 616 78 c 0,10,11
 616 29 616 29 578 24 c 0,12,13
 473 10 473 10 409 10 c 0,14,15
 266 10 266 10 275 147 c 0,16,17
 288 318 288 318 319 319 c 0,18,19
 320 319 320 319 322 318 c 0,20,21
 352 312 352 312 352 247 c 1,22,-1
 347 169 l 1,23,24
 347 47 347 47 509 76 c 0,25,26
 534 80 534 80 534 110.5 c 128,-1,27
 534 141 534 141 509 198 c 1,28,29
 423 437 423 437 363 436 c 0,30,31
 362 436 362 436 360 436 c 0,32,33
 293 429 293 429 268 386 c 0,34,35
 71 66 71 66 43 66 c 0,36,37
 40 66 40 66 39 69 c 0,0,1
EndSplineSet
Validated: 33
EndChar

StartChar: f
Encoding: 29 102 21
Width: 698
VWidth: 685
Flags: W
HStem: 287 24<290 349> 289 41<407 505>
VStem: 364 34<180 281>
AnchorPoint: "top" 454 527 basechar 0
LayerCount: 2
Fore
SplineSet
309 3 m 0,0,1
 309 -17 309 -17 351 -16.5 c 128,-1,2
 393 -16 393 -16 397.5 -5 c 128,-1,3
 402 6 402 6 402 24 c 128,-1,4
 402 42 402 42 393 66 c 128,-1,5
 384 90 384 90 381.5 90.5 c 128,-1,6
 379 91 379 91 378 91 c 0,7,8
 357 91 357 91 333 55 c 128,-1,9
 309 19 309 19 309 3 c 0,0,1
370 -102 m 2,10,-1
 370 -96 l 2,11,12
 370 -66 370 -66 227 -43 c 1,13,14
 227 -42 227 -42 227 -40 c 0,15,16
 227 39 227 39 281 103 c 0,17,18
 350 187 350 187 363 187 c 0,19,20
 364 187 l 0,21,22
 416 182 416 182 424 145 c 0,23,24
 454 34 454 34 486 35 c 0,25,26
 562 35 562 35 562 83 c 0,27,28
 562 368 562 368 447 368 c 0,29,30
 375 368 375 368 243.5 154 c 128,-1,31
 112 -60 112 -60 94 -67 c 128,-1,32
 76 -74 76 -74 64 -74 c 0,33,34
 33 -74 33 -74 34 -34 c 0,35,36
 34 -19 34 -19 38 1 c 0,37,38
 54 80 54 80 206.5 284 c 144,-1,39
 359 488 359 488 450 488 c 0,40,41
 453 488 453 488 456 487 c 0,42,43
 616 476 616 476 657 78 c 0,44,45
 658 65 658 65 659 52 c 0,46,47
 659 -41 659 -41 574 -41 c 2,48,-1
 542 -41 l 2,49,50
 458 -41 458 -41 451 -46 c 1,51,-1
 442 -155 l 1,52,53
 438 -173 438 -173 415 -172 c 0,54,55
 370 -172 370 -172 370 -102 c 2,10,-1
EndSplineSet
Validated: 8388641
EndChar

StartChar: h
Encoding: 31 104 23
Width: 553
VWidth: 612
Flags: W
AnchorPoint: "top" 382 344 basechar 0
LayerCount: 2
Fore
SplineSet
297 -125 m 0
 258 -123 258 -123 258 -97 c 0
 258 -96 258 -96 258 -95 c 0
 259 -80 259 -80 272 -69 c 0
 285 -58 285 -58 300 -59 c 0
 315 -60 315 -60 323 -73 c 0
 331 -86 331 -86 331 -100 c 0
 331 -114 331 -114 320 -120 c 0
 309 -126 309 -126 297 -125 c 0
184 -125 m 0
 146 -123 146 -123 146 -97 c 0
 146 -96 146 -96 146 -95 c 0
 147 -80 147 -80 160 -69 c 0
 173 -58 173 -58 188 -59 c 0
 203 -60 203 -60 211 -73 c 0
 218 -86 218 -86 218 -100 c 0
 218 -114 218 -114 207 -120 c 0
 196 -126 196 -126 184 -125 c 0
EndSplineSet
Refer: 17 97 N 1 0 0 1 0 0 2
Validated: 98305
EndChar

StartChar: i
Encoding: 32 105 24
Width: 402
VWidth: 710
Flags: W
LayerCount: 2
Fore
SplineSet
225.5 228.5 m 128,-1,1
 213 239 213 239 199.5 239 c 128,-1,2
 186 239 186 239 178 228.5 c 128,-1,3
 170 218 170 218 170.5 205.5 c 128,-1,4
 171 193 171 193 179 182.5 c 128,-1,5
 187 172 187 172 200.5 171.5 c 128,-1,6
 214 171 214 171 226.5 181 c 128,-1,7
 239 191 239 191 238.5 204.5 c 128,-1,0
 238 218 238 218 225.5 228.5 c 128,-1,1
151 154 m 0,8,9
 130 171 130 171 130 199.5 c 128,-1,10
 130 228 130 228 150.5 252.5 c 128,-1,11
 171 277 171 277 203.5 277 c 128,-1,12
 236 277 236 277 259.5 257 c 128,-1,13
 283 237 283 237 283 205.5 c 128,-1,14
 283 174 283 174 259 157 c 0,15,16
 233 139 233 139 200 138 c 0,17,18
 171 138 171 138 151 154 c 0,8,9
249 327 m 128,-1,20
 222 337 222 337 193 337 c 128,-1,21
 164 337 164 337 141 319 c 0,22,23
 101 288 101 288 82 230 c 0,24,25
 75 209 75 209 76 201 c 0,26,27
 76 138 76 138 111.5 99 c 128,-1,28
 147 60 147 60 187 60 c 0,29,30
 258 60 258 60 306 133 c 0,31,32
 332 173 332 173 333 195 c 0,33,34
 335 232 335 232 317 267 c 0,35,36
 307 286 307 286 291.5 301.5 c 128,-1,19
 276 317 276 317 249 327 c 128,-1,20
35 197 m 0,37,38
 35 274 35 274 84 332 c 128,-1,39
 133 390 133 390 212 390 c 0,40,41
 254 390 254 390 291 365.5 c 128,-1,42
 328 341 328 341 349 300 c 0,43,44
 371 257 371 257 370 207 c 0,45,46
 370 160 370 160 351 118 c 0,47,48
 332 76 332 76 292.5 47.5 c 128,-1,49
 253 19 253 19 206.5 19 c 128,-1,50
 160 19 160 19 121 43 c 128,-1,51
 82 67 82 67 58.5 108 c 128,-1,52
 35 149 35 149 35 197 c 0,37,38
EndSplineSet
Validated: 33
EndChar

StartChar: k
Encoding: 34 107 25
Width: 652
VWidth: 724
Flags: W
AnchorPoint: "top" 342 716 basechar 0
LayerCount: 2
Fore
SplineSet
361 -139.5 m 128,-1,1
 347 -125 347 -125 329 -122.5 c 128,-1,2
 311 -120 311 -120 301 -133 c 128,-1,3
 291 -146 291 -146 291 -155.5 c 128,-1,4
 291 -165 291 -165 291 -173.5 c 128,-1,5
 291 -182 291 -182 299 -195 c 0,6,7
 309 -211 309 -211 327 -210.5 c 128,-1,8
 345 -210 345 -210 359 -201 c 0,9,10
 375 -191 375 -191 375 -172.5 c 128,-1,0
 375 -154 375 -154 361 -139.5 c 128,-1,1
266 -96 m 128,-1,12
 290 -69 290 -69 328 -69 c 128,-1,13
 366 -69 366 -69 395.5 -98.5 c 128,-1,14
 425 -128 425 -128 425 -169 c 0,15,16
 425 -170 425 -170 425 -171 c 0,17,18
 425 -205 425 -205 397 -226 c 128,-1,19
 369 -247 369 -247 334 -247 c 0,20,21
 294 -247 294 -247 268 -222 c 0,22,23
 241 -196 241 -196 241.5 -159.5 c 128,-1,11
 242 -123 242 -123 266 -96 c 128,-1,12
147 95 m 0,24,25
 140 99 140 99 111 115.5 c 128,-1,26
 82 132 82 132 58 154.5 c 128,-1,27
 34 177 34 177 34 190.5 c 128,-1,28
 34 204 34 204 50 215.5 c 128,-1,29
 66 227 66 227 107 249 c 0,30,31
 212 305 212 305 297 398 c 0,32,33
 362 467 362 467 392 523.5 c 128,-1,34
 422 580 422 580 440 662 c 0,35,36
 446 688 446 688 467.5 656.5 c 128,-1,37
 489 625 489 625 489 585 c 0,38,39
 489 567 489 567 483 557 c 0,40,41
 425 442 425 442 284 307 c 0,42,43
 222 248 222 248 202.5 225 c 128,-1,44
 183 202 183 202 182 191 c 128,-1,45
 181 180 181 180 189 172 c 128,-1,46
 197 164 197 164 205.5 158 c 128,-1,47
 214 152 214 152 229 144 c 128,-1,48
 244 136 244 136 257.5 126.5 c 128,-1,49
 271 117 271 117 299 108.5 c 128,-1,50
 327 100 327 100 347 99 c 0,51,52
 382 96 382 96 412.5 96 c 128,-1,53
 443 96 443 96 484 113.5 c 128,-1,54
 525 131 525 131 525 150 c 0,55,56
 525 156 525 156 519 166.5 c 128,-1,57
 513 177 513 177 463.5 235 c 128,-1,58
 414 293 414 293 414 309 c 0,59,60
 414 318 414 318 428 317 c 0,61,62
 509 309 509 309 558 248 c 128,-1,63
 607 187 607 187 612 99 c 0,64,65
 612 98 612 98 612 97 c 0,66,67
 612 52 612 52 532 34 c 0,68,69
 448 15 448 15 383 16 c 0,70,71
 318 16 318 16 269 34 c 0,72,73
 215 54 215 54 147 95 c 0,24,25
EndSplineSet
Validated: 33
EndChar

StartChar: l
Encoding: 35 108 26
Width: 723
VWidth: 347
Flags: W
HStem: 96 20<-42 -29> 148 51<-48 -10> 186 10G<30 68>
VStem: -51 45<151 197>
LayerCount: 2
Fore
SplineSet
188 97 m 0
 132 99 132 99 132 165 c 0
 132 166 132 166 132 167 c 0
 132 232 132 232 185 231 c 0
 187 231 187 231 188 231 c 0
 249 229 249 229 250 162 c 0
 250 97 250 97 192 97 c 0
 190 97 190 97 188 97 c 0
-178 -947 m 1025
EndSplineSet
Refer: 59 -1 S 1 0 0 1 0 5 2
Validated: 8486949
EndChar

StartChar: m
Encoding: 36 109 27
Width: 760
VWidth: 813
InSpiro: 1
Flags: W
LayerCount: 2
Fore
SplineSet
354.375976562 -113.125 m 0
 353.848632812 -107.241210938 353.848632812 -107.241210938 355.182617188 -101.266601562 c 0
 356.516601562 -95.2919921875 356.516601562 -95.2919921875 359.407226562 -89.779296875 c 0
 362.130859375 -84.5859375 362.130859375 -84.5859375 365.997070312 -79.908203125 c 0
 369.864257812 -75.2314453125 369.864257812 -75.2314453125 374.625 -71.125 c 0
 384.379882812 -62.712890625 384.379882812 -62.712890625 395.165039062 -58.72265625 c 0
 407.252929688 -54.25 407.252929688 -54.25 418.875 -56.125 c 0
 433.733398438 -58.521484375 433.733398438 -58.521484375 445.100585938 -70.5498046875 c 0
 455.51953125 -81.57421875 455.51953125 -81.57421875 460.03125 -96.8125 c 0
 463.561523438 -108.737304688 463.561523438 -108.737304688 461.625 -119.125 c 0
 460.063476562 -127.501953125 460.063476562 -127.501953125 455.079101562 -134.309570312 c 0
 450.243164062 -140.913085938 450.243164062 -140.913085938 442.70703125 -145.315429688 c 0
 429.573242188 -152.987304688 429.573242188 -152.987304688 410.625 -152.875 c 0
 405.771484375 -152.845703125 405.771484375 -152.845703125 401.118164062 -152.311523438 c 0
 396.46484375 -151.776367188 396.46484375 -151.776367188 391.845703125 -150.688476562 c 0
 387.225585938 -149.6015625 387.225585938 -149.6015625 382.779296875 -147.811523438 c 0
 378.333007812 -146.021484375 378.333007812 -146.021484375 374.381835938 -143.609375 c 0
 365.830078125 -138.388671875 365.830078125 -138.388671875 360.684570312 -130.7578125 c 0
 355.23046875 -122.668945312 355.23046875 -122.668945312 354.375976562 -113.125 c 0
  Spiro
    354.376 -113.125 o
    374.625 -71.125 o
    418.875 -56.125 o
    460.031 -96.8125 o
    461.625 -119.125 o
    410.625 -152.875 o
    0 0 z
  EndSpiro
EndSplineSet
Refer: 28 110 N 1 0 0 1 0.000254555 0 2
Validated: 622629
EndChar

StartChar: n
Encoding: 37 110 28
Width: 769
VWidth: 813
Flags: W
AnchorPoint: "top" 517 693 basechar 0
LayerCount: 2
Fore
SplineSet
48 -154 m 0,0,1
 66 -154 66 -154 109 -196 c 0,2,3
 184 -270 184 -270 260 -269 c 0,4,5
 296 -269 296 -269 332 -253 c 0,6,7
 624 -119 624 -119 629 -8 c 0,8,9
 629 -3 629 -3 629 2 c 0,10,11
 628 10 628 10 558 11 c 1,12,13
 329 2 l 1,14,15
 241 2 241 2 183 87 c 1,16,17
 183 87 l 2,18,19
 183 87 l 0,20,21
 183 119 183 119 237 152 c 0,22,23
 352 224 352 224 530 422 c 0,24,25
 548 442 548 442 632 577 c 0,26,27
 685 661 685 661 701 661 c 0,28,29
 701 661 l 0,30,31
 917 649 917 649 287 95 c 1,32,33
 284 81 284 81 330 82 c 1,34,35
 437 96 437 96 548 98 c 0,36,37
 657 99 657 99 565 185 c 1,38,39
 485 268 485 268 590 215 c 0,40,41
 651 183 651 183 684 145 c 0,42,43
 730 90 730 90 729.5 -4 c 128,-1,44
 729 -98 729 -98 653 -158 c 0,45,46
 531 -253 531 -253 440 -296.5 c 128,-1,47
 349 -340 349 -340 225 -340 c 0,48,49
 149 -340 149 -340 87 -292 c 0,50,51
 34 -250 34 -250 34 -190 c 0,52,53
 33 -154 33 -154 48 -154 c 0,0,1
EndSplineSet
Validated: 37
EndChar

StartChar: o
Encoding: 38 111 29
Width: 524
VWidth: 720
Flags: W
LayerCount: 2
Fore
SplineSet
406 50 m 1,0,-1
 260 390 l 1,1,-1
 280 51 l 1,2,-1
 406 50 l 1,0,-1
207 380 m 1,3,-1
 90 59 l 1,4,-1
 207 50 l 1,5,-1
 207 380 l 1,3,-1
485 37 m 0,6,7
 485 6 485 6 303 7 c 0,8,9
 228 7 228 7 131 10.5 c 128,-1,10
 34 14 34 14 34 20 c 0,11,12
 34 43 34 43 70 156 c 128,-1,13
 106 269 106 269 159.5 399.5 c 128,-1,14
 213 530 213 530 229 530 c 0,15,16
 251 530 251 530 345 355 c 0,17,18
 485 95 485 95 485 37 c 0,6,7
EndSplineSet
Validated: 33
EndChar

StartChar: s
Encoding: 40 115 31
Width: 920
VWidth: 891
Flags: W
AnchorPoint: "top" 469 790 basechar 0
LayerCount: 2
Fore
SplineSet
35 124 m 0,0,1
 35 127 35 127 56.5 138.5 c 128,-1,2
 78 150 78 150 114 172 c 128,-1,3
 150 194 150 194 195 225 c 128,-1,4
 240 256 240 256 289.5 304.5 c 128,-1,5
 339 353 339 353 385 411.5 c 128,-1,6
 431 470 431 470 473 552 c 1,7,-1
 555 746 l 1,8,9
 703 746 703 746 612 617 c 0,10,11
 610 615 610 615 549 526.5 c 128,-1,12
 488 438 488 438 449 385.5 c 128,-1,13
 410 333 410 333 343 258 c 0,14,15
 280 186 280 186 223 144 c 0,16,17
 207 132 207 132 208 122 c 0,18,19
 208 89 208 89 413 68 c 0,20,21
 461 64 461 64 507 94 c 0,22,23
 542 117 542 117 551 148 c 128,-1,24
 560 179 560 179 563 210 c 128,-1,25
 566 241 566 241 571 262 c 0,26,27
 576 285 576 285 595 285 c 0,28,29
 622 285 622 285 629 267 c 0,30,31
 637 248 637 248 641 212.5 c 128,-1,32
 645 177 645 177 664 154 c 0,33,34
 701 106 701 106 752 106 c 0,35,36
 755 106 755 106 759 106 c 0,37,38
 811 114 811 114 811 157 c 0,39,40
 811 235 811 235 737 308 c 1,41,42
 712 349 712 349 712 359 c 0,43,44
 712 362 712 362 714 361 c 0,45,46
 715 361 l 0,47,48
 794 348 794 348 838 278 c 0,49,50
 883 208 883 208 883 117 c 0,51,52
 883 76 883 76 839 56 c 0,53,54
 815 45 815 45 793 45 c 1,55,-1
 648 81 l 1,56,57
 594 79 594 79 561.5 64 c 128,-1,58
 529 49 529 49 482 32 c 128,-1,59
 435 15 435 15 397 16 c 0,60,61
 337 17 337 17 186 59 c 128,-1,62
 35 101 35 101 35 124 c 0,0,1
EndSplineSet
Validated: 33
EndChar

StartChar: t
Encoding: 41 116 32
Width: 723
VWidth: 435
Flags: W
HStem: 184 20<521 535> 236 51<515 553> 273 10G<593 631>
VStem: 512 45<239 285>
AnchorPoint: "top" 244 288 basechar 0
LayerCount: 2
Fore
SplineSet
167 259 m 0
 111 261 111 261 111 327 c 0
 111 328 111 328 111 330 c 0
 111 395 111 395 164 394 c 0
 166 394 166 394 167 394 c 0
 228 392 228 392 228 324 c 0
 228 259 228 259 171 259 c 0
 169 259 169 259 167 259 c 0
167 85 m 0
 111 87 111 87 111 152 c 0
 111 153 111 153 111 155 c 0
 111 220 111 220 164 219 c 0
 166 219 166 219 167 219 c 0
 228 217 228 217 228 150 c 0
 228 85 228 85 171 85 c 0
 169 85 169 85 167 85 c 0
EndSplineSet
Refer: 59 -1 S 1 0 0 1 0 0 2
Validated: 8486949
EndChar

StartChar: u
Encoding: 42 117 33
Width: 484
VWidth: 710
Flags: W
LayerCount: 2
Fore
SplineSet
216 244 m 0,0,1
 259 244 259 244 262 202 c 0,2,3
 263 184 263 184 252 173 c 128,-1,4
 241 162 241 162 223 161 c 0,5,6
 222 161 222 161 221 161 c 0,7,8
 182 161 182 161 182 205 c 0,9,10
 182 244 182 244 216 244 c 0,0,1
327 264 m 0,11,12
 293 330 293 330 224 331 c 0,13,14
 223 331 223 331 208 331 c 0,15,16
 157 330 157 330 125 275 c 0,17,18
 97 227 97 227 97 195 c 0,19,20
 97 141 97 141 131 104 c 128,-1,21
 165 67 165 67 203 67 c 0,22,23
 230 67 230 67 260 83 c 0,24,25
 342 125 342 125 342 206 c 0,26,27
 342 236 342 236 327 264 c 0,11,12
34 200 m 0,28,29
 34 282 34 282 86 344 c 0,30,31
 141 408 141 408 227 408 c 0,32,33
 274 408 274 408 314.5 381 c 128,-1,34
 355 354 355 354 378 309 c 0,35,36
 402 261 402 261 402 208 c 128,-1,37
 402 155 402 155 380.5 109 c 128,-1,38
 359 63 359 63 318 34 c 1,39,40
 240 0 240 0 223 2 c 1,41,42
 171 2 171 2 128 27 c 128,-1,43
 85 52 85 52 59.5 98 c 128,-1,44
 34 144 34 144 34 200 c 0,28,29
EndSplineSet
Validated: 33
EndChar

StartChar: x
Encoding: 45 120 36
Width: 657
VWidth: 724
Flags: W
AnchorPoint: "top" 664 922 basechar 0
LayerCount: 2
Back
Refer: 25 107 N 1 0 0 1 9.50065 0 2
Fore
SplineSet
205 445 m 1
 373 168 l 0
 265 271 265 271 157 374 c 0
 205 445 l 1
EndSplineSet
Refer: 25 107 S 1 0 0 1 5 0 2
Validated: 622597
EndChar

StartChar: y
Encoding: 46 121 37
Width: 638
VWidth: 564
Flags: W
AnchorPoint: "top" 289 559 basechar 0
LayerCount: 2
Fore
SplineSet
494 -74 m 1,0,-1
 161 -69 l 1,1,-1
 307 -374 l 1,2,-1
 494 -74 l 1,0,-1
392 371 m 0,3,4
 471 259 471 259 537 141 c 0,5,6
 600 28 600 28 599 2 c 0,7,8
 599 1 599 1 599 0 c 0,9,10
 596 -26 596 -26 463 -268 c 0,11,12
 357 -460 357 -460 295 -460 c 0,13,14
 273 -460 273 -460 256 -436 c 0,15,16
 233 -403 233 -403 111 -161 c 0,17,18
 35 -10 35 -10 35 18 c 0,19,20
 35 36 35 36 84 150.5 c 128,-1,21
 133 265 133 265 195 375 c 0,22,23
 255 484 255 484 283 483 c 0,24,25
 312 484 312 484 392 371 c 0,3,4
285 380 m 1,26,27
 137 97 137 97 136 67 c 0,28,29
 136 65 136 65 137 63 c 0,30,31
 145 56 145 56 259 57 c 0,32,33
 313 57 313 57 391 58 c 1,34,-1
 472 61 l 1,35,-1
 285 380 l 1,26,27
EndSplineSet
Validated: 33
EndChar

StartChar: braceleft
Encoding: 48 123 39
Width: 603
VWidth: 728
Flags: W
LayerCount: 2
Fore
SplineSet
383 783 m 0
 383 777 l 2
 185 467 l 1
 255 407 255 407 293 407 c 0
 329 407 329 407 337 461 c 0
 356 574 356 574 365 575 c 0
 366 574 l 0
 397 505 l 0
 400 456 400 456 427 451 c 0
 430 451 430 451 433 452 c 0
 483 461 483 461 483 471 c 0
 483 472 483 472 482 473 c 0
 482 474 l 0
 467 533 467 533 467 554 c 0
 467 565 467 565 472 565 c 0
 480 565 480 565 502 528 c 0
 597 374 597 374 597 303 c 0
 597 302 l 0
 597 302 l 0
 597 260 597 260 541 207 c 0
 447 117 447 117 297 63 c 0
 205 31 205 31 140 31 c 0
 101 31 101 31 72 43 c 0
 45 54 45 54 44 105 c 0
 44 106 44 106 44 107 c 0
 44 131 44 131 51 165 c 1
 79 189 79 189 106 212 c 1
 92 177 92 177 92 151 c 0
 92 151 l 0
 92 151 l 0
 92 87 92 87 157 86 c 0
 158 86 l 0
 159 86 l 0
 201 86 201 86 275 115 c 0
 341 140 341 140 468 228 c 0
 536 276 536 276 539 326 c 0
 539 333 539 333 538 340 c 0
 526 395 526 395 505 410 c 1
 454 398 454 398 423 397 c 0
 372 397 372 397 372 429 c 0
 372 430 l 1
 331 312 331 312 282 336 c 0
 231 361 231 361 202 373 c 1
 82 443 l 1
 196 553 196 553 266 689 c 0
 342 835 342 835 356 836 c 0
 383 835 383 835 383 783 c 0
EndSplineSet
Refer: 2 -1 N 1 0 0 1 -152 688 2
Validated: 98341
EndChar

StartChar: braceright
Encoding: 49 125 40
Width: 453
VWidth: 689
Flags: W
LayerCount: 2
Fore
SplineSet
297 381 m 4,0,1
 327 381 327 381 328 353 c 4,2,3
 328 352 328 352 328 351 c 4,4,5
 328 328 328 328 302 333 c 4,6,7
 278 336 278 336 278 358.5 c 132,-1,8
 278 381 278 381 297 381 c 4,0,1
EndSplineSet
Validated: 1
EndChar

StartChar: N_tilde
Encoding: 50 126 41
Width: 788
VWidth: 873
Flags: W
LayerCount: 2
Fore
SplineSet
429 51 m 1,0,-1
 504 67 l 1,1,-1
 485 161 l 1,2,3
 449 145 449 145 424 119 c 0,4,5
 370 62 370 62 429 51 c 1,0,-1
314 29 m 0,6,7
 314 55 314 55 389 145 c 0,8,9
 471 242 471 242 505 242 c 0,10,11
 526 242 526 242 564 137 c 1,12,13
 576 115 576 115 595 116 c 0,14,15
 698 116 698 116 695 163 c 0,16,17
 693 207 693 207 636 249 c 0,18,19
 546 316 546 316 462 317 c 0,20,21
 390 317 390 317 315 259 c 0,22,23
 -28 -10 -28 -10 45 83 c 1,24,25
 100 161 100 161 220.5 261.5 c 128,-1,26
 341 362 341 362 398 430 c 0,27,28
 468 515 468 515 500 558 c 0,29,30
 588 674 588 674 639 803 c 0,31,32
 651 832 651 832 668 832 c 0,33,34
 677 832 677 832 688 824 c 0,35,36
 718 805 718 805 721 763 c 1,37,38
 715 716 715 716 610 578 c 0,39,40
 511 448 511 448 484 390 c 0,41,42
 481 383 481 383 500 377 c 128,-1,43
 519 371 519 371 550 365 c 0,44,45
 618 353 618 353 691 307 c 128,-1,46
 764 261 764 261 764 145 c 0,47,48
 764 102 764 102 743 81 c 0,49,50
 738 76 738 76 630 45 c 0,51,52
 594 35 594 35 579 12 c 0,53,54
 577 9 577 9 568 -89 c 0,55,56
 566 -116 566 -116 540 -115 c 4,57,58
 504 -115 504 -115 507 -55 c 1,59,60
 507 15 507 15 418 16 c 1,61,62
 314 10 314 10 314 29 c 0,6,7
EndSplineSet
Validated: 33
EndChar

StartChar: long_consonant
Encoding: 51 778 42
Width: 453
VWidth: 824
Flags: W
AnchorPoint: "top" 308 498 mark 0
LayerCount: 2
Fore
SplineSet
216 628 m 0,0,1
 216 577 216 577 290 569 c 1,2,-1
 282 688 l 1,3,4
 216 682 216 682 216 628 c 0,0,1
279 750 m 1,5,-1
 306 750 l 1,6,-1
 307 725 l 1,7,8
 427 718 427 718 427 607 c 0,9,10
 427 537 427 537 317 536 c 1,11,-1
 318 500 l 1,12,-1
 294 503 l 1,13,-1
 292 537 l 1,14,15
 179 545 179 545 179 634 c 0,16,17
 179 720 179 720 280 725 c 1,18,-1
 279 750 l 1,5,-1
317 567 m 0,19,20
 395 561 395 561 394 618 c 1,21,22
 393 671 393 671 309 687 c 1,23,24
 315 567 315 567 317 567 c 0,19,20
EndSplineSet
Validated: 33
EndChar

StartChar: j
Encoding: 33 106 43
Width: 330
VWidth: 925
Flags: W
AnchorPoint: "top" 90 762 basechar 0
LayerCount: 2
Fore
SplineSet
91 149 m 1,0,1
 49 149 49 149 49 165 c 0,2,3
 49 174 49 174 63 185 c 128,-1,4
 77 196 77 196 154 200 c 0,5,6
 209 204 209 204 212 239 c 0,7,8
 213 249 213 249 213 257 c 0,9,10
 213 315 213 315 184 316 c 0,11,12
 175 316 175 316 165 310 c 0,13,14
 82 274 82 274 56 274 c 0,15,16
 51 274 51 274 48 275 c 0,17,18
 34 280 34 280 34 290 c 0,19,20
 34 314 34 314 141 362 c 0,21,22
 176 378 176 378 201 379 c 0,23,24
 271 379 271 379 272 256 c 0,25,26
 272 239 272 239 270 220 c 1,27,28
 273 179 273 179 304.5 128.5 c 128,-1,29
 336 78 336 78 336 47 c 0,30,31
 336 39 336 39 334 33 c 0,32,33
 329 16 329 16 170 15 c 1,34,-1
 65 38 l 1,35,36
 65 85 65 85 109 85 c 0,37,38
 123 85 123 85 150.5 77.5 c 128,-1,39
 178 70 178 70 207 70 c 128,-1,40
 236 70 236 70 253 85 c 0,41,42
 256 87 256 87 256 91 c 0,43,44
 256 106 256 106 214 140 c 0,45,46
 202 151 202 151 159 151 c 1,47,-1
 91 149 l 1,0,1
53 319 m 1,48,49
 232 692 232 692 272 896 c 1,50,-1
 382 836 l 1,51,-1
 53 319 l 1,48,49
EndSplineSet
Validated: 1
EndChar

StartChar: zero
Encoding: 3 48 45
Width: 872
VWidth: 690
Flags: W
LayerCount: 2
Fore
SplineSet
705 534 m 25,0,-1
 238 515 l 25,1,-1
 246 -15 l 25,2,-1
 707 -1 l 25,3,-1
 705 534 l 25,0,-1
184 -85 m 25,4,-1
 172 587 l 25,5,-1
 809 595 l 25,6,-1
 811 -65 l 25,7,-1
 184 -85 l 25,4,-1
EndSplineSet
Validated: 1
EndChar

StartChar: one
Encoding: 4 49 46
Width: 874
VWidth: 703
Flags: W
LayerCount: 2
Fore
SplineSet
392 601 m 16,0,1
 372 602 372 602 354 603 c 0,2,3
 111 603 111 603 112 345 c 0,4,5
 112 323 112 323 114 298 c 8,6,7
 134 32 134 32 435 7 c 16,8,9
 463 5 463 5 488 5 c 0,10,11
 747 5 747 5 747 223 c 0,12,13
 747 236 747 236 747 251 c 8,14,15
 722 576 722 576 392 601 c 16,0,1
398 642 m 8,16,17
 789 611 789 611 812 231 c 16,18,19
 813 214 813 214 813 198 c 0,20,21
 813 -77 813 -77 499 -77 c 0,22,23
 470 -77 470 -77 439 -75 c 8,24,25
 91 -48 91 -48 71 286 c 16,26,27
 70 307 70 307 70 327 c 0,28,29
 70 644 70 644 357 644 c 0,30,31
 377 643 377 643 398 642 c 8,16,17
EndSplineSet
Validated: 33
EndChar

StartChar: two
Encoding: 5 50 47
Width: 874
VWidth: 703
Flags: W
LayerCount: 2
Fore
SplineSet
398 642 m 0,1,2
 789 611 789 611 812 231 c 0,3,4
 813 214 813 214 813 198 c 0,5,6
 813 -77 813 -77 499 -77 c 0,7,8
 470 -77 470 -77 439 -75 c 0,9,10
 91 -48 91 -48 71 286 c 0,11,12
 70 307 70 307 70 327 c 0,13,14
 70 644 70 644 357 644 c 0,15,0
 377 643 377 643 398 642 c 0,1,2
353 601 m 1,16,17
 112 601 112 601 112 344 c 0,18,19
 112 322 112 322 114 298 c 0,20,21
 132 48 132 48 396 11 c 1,22,-1
 353 601 l 1,16,17
456 7 m 1,23,24
 472 6 472 6 487 7 c 0,25,26
 747 7 747 7 748 223 c 0,27,28
 748 237 748 237 747 251 c 0,29,30
 724 556 724 556 429 595 c 1,31,-1
 456 7 l 1,23,24
EndSplineSet
Validated: 1
EndChar

StartChar: three
Encoding: 6 51 48
Width: 874
VWidth: 703
Flags: W
LayerCount: 2
Fore
SplineSet
398 642 m 0,0,1
 789 611 789 611 812 231 c 0,2,3
 813 214 813 214 813 198 c 0,4,5
 813 -77 813 -77 499 -77 c 0,6,7
 470 -77 470 -77 439 -75 c 0,8,9
 91 -48 91 -48 71 286 c 0,10,11
 70 307 70 307 70 327 c 0,12,13
 70 644 70 644 357 644 c 0,14,15
 377 643 377 643 398 642 c 0,0,1
392 601 m 0,16,17
 373 602 373 602 356 603 c 0,18,19
 111 603 111 603 111 343 c 0,20,21
 111 335 111 335 112 327 c 1,22,-1
 742 288 l 1,23,24
 703 576 703 576 392 601 c 0,16,17
392 11 m 1,25,-1
 351 241 l 1,26,-1
 120 253 l 1,27,28
 154 46 154 46 392 11 c 1,25,-1
456 7 m 1,29,30
 473 6 473 6 490 6 c 0,31,32
 747 6 747 6 747 220 c 1,33,-1
 427 237 l 1,34,-1
 456 7 l 1,29,30
EndSplineSet
Validated: 1
EndChar

StartChar: four
Encoding: 7 52 49
Width: 874
VWidth: 703
Flags: W
LayerCount: 2
Fore
SplineSet
398 642 m 0,0,1
 789 611 789 611 812 231 c 0,2,3
 813 214 813 214 813 198 c 0,4,5
 813 -77 813 -77 499 -77 c 0,6,7
 470 -77 470 -77 439 -75 c 0,8,9
 91 -48 91 -48 71 286 c 0,10,11
 70 307 70 307 70 327 c 0,12,13
 70 644 70 644 357 644 c 0,14,15
 377 643 377 643 398 642 c 0,0,1
353 601 m 1,16,17
 111 601 111 601 111 344 c 0,18,19
 111 336 111 336 112 327 c 1,20,-1
 374 308 l 1,21,-1
 353 601 l 1,16,17
396 11 m 1,22,-1
 380 239 l 1,23,-1
 120 253 l 1,24,25
 156 44 156 44 396 11 c 1,22,-1
456 7 m 1,26,27
 473 6 473 6 489 7 c 0,28,29
 745 7 745 7 749 220 c 1,30,-1
 445 237 l 1,31,-1
 456 7 l 1,26,27
429 595 m 1,32,-1
 443 306 l 1,33,-1
 742 288 l 1,34,35
 705 558 705 558 429 595 c 1,32,-1
EndSplineSet
Validated: 33
EndChar

StartChar: five
Encoding: 8 53 50
Width: 874
VWidth: 739
Flags: W
LayerCount: 2
Fore
SplineSet
398 607 m 0,0,1
 789 576 789 576 812 195 c 0,2,3
 813 178 813 178 813 163 c 0,4,5
 813 -112 813 -112 499 -112 c 0,6,7
 470 -112 470 -112 439 -110 c 0,8,9
 91 -83 91 -83 71 250 c 0,10,11
 70 271 70 271 70 292 c 0,12,13
 70 609 70 609 357 608 c 0,14,15
 377 608 377 608 398 607 c 0,0,1
336 703 m 0,16,17
 329 712 329 712 329 727 c 0,18,19
 329 740 329 740 334 756 c 0,20,21
 345 793 345 793 358.5 802.5 c 128,-1,22
 372 812 372 812 412 818 c 0,23,24
 423 820 423 820 432 820 c 0,25,26
 456 820 456 820 467 809 c 0,27,28
 481 795 481 795 481 762 c 0,29,30
 481 758 481 758 480 752 c 0,31,32
 478 711 478 711 457 696 c 0,33,34
 439 683 439 683 406 683 c 0,35,36
 399 683 399 683 392 684 c 0,37,38
 349 687 349 687 336 703 c 0,16,17
353 566 m 1,39,40
 111 566 111 566 111 309 c 0,41,42
 111 301 111 301 112 291 c 1,43,-1
 374 275 l 1,44,-1
 353 566 l 1,39,40
396 -24 m 1,45,-1
 380 203 l 1,46,-1
 120 218 l 1,47,48
 156 9 156 9 396 -24 c 1,45,-1
456 -28 m 1,49,50
 473 -29 473 -29 489 -29 c 0,51,52
 745 -29 745 -29 749 185 c 1,53,-1
 445 201 l 1,54,-1
 456 -28 l 1,49,50
429 560 m 1,55,-1
 443 271 l 1,56,-1
 742 253 l 1,57,58
 705 523 705 523 429 560 c 1,55,-1
EndSplineSet
Validated: 33
EndChar

StartChar: six
Encoding: 9 54 51
Width: 874
VWidth: 739
Flags: W
LayerCount: 2
Fore
SplineSet
398 607 m 0,0,1
 789 576 789 576 812 195 c 0,2,3
 813 178 813 178 813 163 c 0,4,5
 813 -112 813 -112 499 -112 c 0,6,7
 470 -112 470 -112 439 -110 c 0,8,9
 91 -83 91 -83 71 250 c 0,10,11
 70 271 70 271 70 292 c 0,12,13
 70 609 70 609 357 608 c 0,14,15
 377 608 377 608 398 607 c 0,0,1
198 703 m 0,16,17
 190 712 190 712 190 728 c 0,18,19
 190 740 190 740 195 756 c 0,20,21
 206 793 206 793 220.5 802.5 c 128,-1,22
 235 812 235 812 273 818 c 0,23,24
 284 820 284 820 294 820 c 0,25,26
 317 820 317 820 328 809 c 0,27,28
 342 795 342 795 341 762 c 0,29,30
 341 758 341 758 341 752 c 0,31,32
 339 711 339 711 318 696 c 0,33,34
 301 683 301 683 269 683 c 0,35,36
 262 683 262 683 255 684 c 0,37,38
 212 687 212 687 198 703 c 0,16,17
459 703 m 0,39,40
 452 712 452 712 452 727 c 0,41,42
 452 740 452 740 457 756 c 0,43,44
 468 793 468 793 481.5 802.5 c 128,-1,45
 495 812 495 812 535 818 c 0,46,47
 546 820 546 820 555 820 c 0,48,49
 579 820 579 820 590 809 c 0,50,51
 604 795 604 795 603 762 c 0,52,53
 603 758 603 758 603 752 c 0,54,55
 601 711 601 711 580 696 c 0,56,57
 562 683 562 683 529 683 c 0,58,59
 522 683 522 683 515 684 c 0,60,61
 472 687 472 687 459 703 c 0,39,40
353 566 m 1,62,63
 111 566 111 566 111 309 c 0,64,65
 111 301 111 301 112 291 c 1,66,-1
 374 275 l 1,67,-1
 353 566 l 1,62,63
396 -24 m 1,68,-1
 380 203 l 1,69,-1
 120 218 l 1,70,71
 156 9 156 9 396 -24 c 1,68,-1
456 -28 m 1,72,73
 473 -29 473 -29 489 -29 c 0,74,75
 745 -29 745 -29 747 185 c 1,76,-1
 445 201 l 1,77,-1
 456 -28 l 1,72,73
429 560 m 1,78,-1
 443 271 l 1,79,-1
 742 253 l 1,80,81
 705 523 705 523 429 560 c 1,78,-1
EndSplineSet
Validated: 2081
EndChar

StartChar: seven
Encoding: 10 55 52
Width: 770
VWidth: 690
Flags: W
LayerCount: 2
Fore
SplineSet
82 -85 m 1,0,-1
 70 587 l 1,1,-1
 707 595 l 1,2,-1
 709 -65 l 1,3,-1
 82 -85 l 1,0,-1
137 460 m 1,4,-1
 143 -15 l 1,5,-1
 557 -5 l 1,6,-1
 137 460 l 1,4,-1
195 517 m 1,7,-1
 604 42 l 1,8,-1
 602 534 l 1,9,-1
 195 517 l 1,7,-1
EndSplineSet
Validated: 1
EndChar

StartChar: eight
Encoding: 11 56 53
Width: 770
VWidth: 690
Flags: W
LayerCount: 2
Fore
SplineSet
82 -85 m 1,0,-1
 70 587 l 1,1,-1
 707 595 l 1,2,-1
 709 -65 l 1,3,-1
 82 -85 l 1,0,-1
602 -3 m 1,4,-1
 371 212 l 1,5,-1
 195 -15 l 1,6,-1
 602 -3 l 1,4,-1
637 30 m 1,7,-1
 633 534 l 1,8,-1
 614 534 l 1,9,-1
 618 529 l 1,10,-1
 410 259 l 1,11,-1
 637 30 l 1,7,-1
563 529 m 1,12,-1
 135 515 l 1,13,-1
 143 -5 l 1,14,-1
 563 529 l 1,12,-1
EndSplineSet
Validated: 1
EndChar

StartChar: nine
Encoding: 12 57 54
Width: 770
VWidth: 690
Flags: W
LayerCount: 2
Fore
SplineSet
82 -85 m 1,0,-1
 70 587 l 1,1,-1
 707 595 l 1,2,-1
 709 -65 l 1,3,-1
 82 -85 l 1,0,-1
135 499 m 1,4,-1
 143 -5 l 1,5,-1
 354 265 l 1,6,-1
 135 499 l 1,4,-1
604 -3 m 1,7,-1
 385 232 l 1,8,-1
 195 -15 l 1,9,-1
 604 -3 l 1,7,-1
195 517 m 1,10,-1
 385 304 l 1,11,-1
 563 529 l 1,12,-1
 195 517 l 1,10,-1
637 24 m 1,13,-1
 633 534 l 1,14,-1
 616 534 l 1,15,-1
 414 269 l 1,16,-1
 637 24 l 1,13,-1
EndSplineSet
Validated: 1
EndChar

StartChar: hundred
Encoding: 52 8588 55
Width: 770
VWidth: 674
Flags: W
LayerCount: 2
Fore
SplineSet
420 340 m 0
 420 280 420 280 358 285 c 4
 325 287 325 287 321 317 c 0
 312 395 312 395 369 394 c 0
 420 392 420 392 420 340 c 0
EndSplineSet
Refer: 45 48 N 1 0 0 1 -102 97 2
Validated: 622625
EndChar

StartChar: thousand
Encoding: 53 8589 56
Width: 765
VWidth: 726
Flags: W
LayerCount: 2
Fore
SplineSet
348 736 m 0
 283 736 283 736 283 771 c 0
 283 781 283 781 291 803 c 0
 298 825 298 825 309 831 c 0
 320 837 320 837 340 842 c 0
 360 846 360 846 366 846 c 0
 406 846 406 846 406 801 c 0
 406 796 406 796 406 791 c 0
 406 759 406 759 390 748 c 0
 374 736 374 736 348 736 c 0
345 327 m 0
 294 331 294 331 294 365 c 0
 294 436 294 436 369 436 c 0
 418 436 418 436 414 383 c 4
 414 327 414 327 345 327 c 0
EndSplineSet
Refer: 45 48 N 1 0 0 1 -109 103 2
Validated: 622625
EndChar

StartChar: million
Encoding: 54 8590 57
Width: 770
VWidth: 702
Flags: W
LayerCount: 2
Fore
SplineSet
599 635 m 1,0,-1
 135 614 l 1,1,-1
 139 390 l 1,2,-1
 600 396 l 1,3,-1
 599 635 l 1,0,-1
80 15 m 1,4,-1
 68 688 l 1,5,-1
 703 697 l 1,6,-1
 707 36 l 1,7,-1
 80 15 l 1,4,-1
283 787 m 0,8,9
 276 795 276 795 276 809 c 0,10,11
 276 822 276 822 282 839 c 0,12,13
 294 876 294 876 306 886.5 c 128,-1,14
 318 897 318 897 358 902 c 0,15,16
 368 903 368 903 376 903 c 0,17,18
 402 903 402 903 414 891 c 0,19,20
 427 879 427 879 426 848 c 0,21,22
 426 842 426 842 426 835 c 0,23,24
 423 793 423 793 403 779 c 0,25,26
 386 768 386 768 353 768 c 0,27,28
 347 768 347 768 340 769 c 0,29,30
 297 772 297 772 283 787 c 0,8,9
140 353 m 1,31,-1
 144 82 l 1,32,-1
 602 98 l 1,33,-1
 601 353 l 1,34,-1
 140 353 l 1,31,-1
EndSplineSet
Validated: 33
EndChar

StartChar: milliard
Encoding: 55 8591 58
Width: 769
VWidth: 730
Flags: W
LayerCount: 2
Fore
SplineSet
600 635 m 1,0,-1
 133 617 l 1,1,-1
 137 390 l 1,2,-1
 601 396 l 1,3,-1
 600 635 l 1,0,-1
81 18 m 1,4,-1
 69 688 l 1,5,-1
 705 697 l 1,6,-1
 708 39 l 1,7,-1
 81 18 l 1,4,-1
448 778 m 0,8,9
 440 788 440 788 440 803 c 0,10,11
 440 815 440 815 445 830 c 0,12,13
 456 865 456 865 469.5 876 c 128,-1,14
 483 887 483 887 523 892 c 0,15,16
 532 893 532 893 540 893 c 0,17,18
 566 893 566 893 579 881 c 0,19,20
 593 867 593 867 593 833 c 0,21,22
 593 830 593 830 592 826 c 0,23,24
 590 786 590 786 569 771 c 0,25,26
 551 758 551 758 519 758 c 0,27,28
 512 758 512 758 505 758 c 0,29,30
 462 761 462 761 448 778 c 0,8,9
294 947 m 0,31,32
 286 957 286 957 287 972 c 0,33,34
 287 984 287 984 291 999 c 0,35,36
 302 1034 302 1034 316 1045 c 128,-1,37
 330 1056 330 1056 370 1062 c 0,38,39
 381 1064 381 1064 389 1064 c 0,40,41
 413 1064 413 1064 425 1052 c 0,42,43
 438 1038 438 1038 438 1007 c 0,44,45
 438 1001 438 1001 437 995 c 0,46,47
 434 955 434 955 414 939 c 0,48,49
 397 926 397 926 365 927 c 0,50,51
 358 927 358 927 351 927 c 0,52,53
 308 930 308 930 294 947 c 0,31,32
165 775 m 0,54,55
 157 785 157 785 158 800 c 0,56,57
 158 812 158 812 162 827 c 0,58,59
 173 862 173 862 187 873 c 128,-1,60
 201 884 201 884 241 890 c 0,61,62
 252 892 252 892 260 892 c 0,63,64
 284 892 284 892 296 880 c 0,65,66
 309 866 309 866 309 835 c 0,67,68
 309 829 309 829 308 823 c 0,69,70
 305 783 305 783 285 767 c 0,71,72
 268 754 268 754 236 755 c 0,73,74
 229 755 229 755 222 755 c 0,75,76
 179 758 179 758 165 775 c 0,54,55
138 353 m 1,77,-1
 142 85 l 1,78,-1
 603 101 l 1,79,-1
 602 356 l 1,80,-1
 138 353 l 1,77,-1
EndSplineSet
Validated: 33
EndChar

StartChar: lt_base
Encoding: 56 -1 59
Width: 569
VWidth: 499
Flags: W
LayerCount: 2
Fore
SplineSet
414 -175 m 0,0,1
 414 -190 414 -190 402.5 -201 c 128,-1,2
 391 -212 391 -212 376.5 -212 c 128,-1,3
 362 -212 362 -212 351 -202 c 0,4,5
 338 -191 338 -191 338 -155 c 0,6,7
 338 -86 338 -86 336 -65 c 0,8,9
 333 -37 333 -37 325 -37 c 0,10,11
 280 -37 280 -37 188.5 -37.5 c 128,-1,12
 97 -38 97 -38 49 -38 c 0,13,14
 34 -38 34 -38 23 -27 c 128,-1,15
 12 -16 12 -16 12 -1 c 128,-1,16
 12 14 12 14 23.5 25.5 c 128,-1,17
 35 37 35 37 49 37 c 0,18,19
 99 37 99 37 182 30.5 c 128,-1,20
 265 24 265 24 309 24 c 1,21,22
 305 62 305 62 304 96 c 0,23,24
 304 143 304 143 308.5 182 c 128,-1,25
 313 221 313 221 325 264.5 c 128,-1,26
 337 308 337 308 363 333 c 128,-1,27
 389 358 389 358 427 358 c 2,28,-1
 442 357 l 1,29,30
 541 343 541 343 611 279 c 128,-1,31
 681 215 681 215 681 116 c 0,32,33
 681 22 681 22 562 -13 c 0,34,35
 539 -20 539 -20 453 -38 c 0,36,37
 424 -44 424 -44 396 -47 c 1,38,39
 397 -55 397 -55 401.5 -74.5 c 128,-1,40
 406 -94 406 -94 408 -107 c 128,-1,41
 410 -120 410 -120 412 -139.5 c 128,-1,42
 414 -159 414 -159 414 -175 c 0,0,1
593 113 m 0,43,44
 593 114 l 0,45,46
 593 161 593 161 529 210 c 0,47,48
 479 248 479 248 441 248 c 0,49,50
 407 248 407 248 390 224 c 0,51,52
 378 207 378 207 378 172 c 0,53,54
 378 162 378 162 379 151 c 0,55,56
 381 133 381 133 384.5 109 c 128,-1,57
 388 85 388 85 388 74 c 0,58,59
 389 36 389 36 459 36 c 0,60,61
 593 36 593 36 593 113 c 0,43,44
684 -196 m 0,62,63
 684 -234 684 -234 620 -234 c 0,64,65
 613 -234 613 -234 604.5 -234 c 128,-1,66
 596 -234 596 -234 589 -234 c 128,-1,67
 582 -234 582 -234 573.5 -235 c 128,-1,68
 565 -236 565 -236 558 -236.5 c 128,-1,69
 551 -237 551 -237 544 -237 c 128,-1,70
 537 -237 537 -237 529.5 -237.5 c 128,-1,71
 522 -238 522 -238 515 -238.5 c 128,-1,72
 508 -239 508 -239 501 -239 c 128,-1,73
 494 -239 494 -239 486.5 -239 c 128,-1,74
 479 -239 479 -239 472 -239 c 0,75,76
 447 -239 447 -239 426.5 -244 c 128,-1,77
 406 -249 406 -249 383 -261 c 0,78,79
 354 -277 354 -277 329 -294.5 c 128,-1,80
 304 -312 304 -312 280 -335 c 128,-1,81
 256 -358 256 -358 240.5 -372.5 c 128,-1,82
 225 -387 225 -387 201 -418.5 c 128,-1,83
 177 -450 177 -450 167.5 -462 c 128,-1,84
 158 -474 158 -474 129 -514 c 128,-1,85
 100 -554 100 -554 92 -566 c 0,86,87
 78 -586 78 -586 -28 -739 c 0,88,89
 -258 -1076 -258 -1076 -264 -1077 c 0,90,91
 -266 -1077 -266 -1077 -253 -1056 c 0,92,93
 -210 -983 -210 -983 -130 -808.5 c 128,-1,94
 -50 -634 -50 -634 31 -522 c 0,95,96
 37 -514 37 -514 62 -479.5 c 128,-1,97
 87 -445 87 -445 93.5 -436 c 128,-1,98
 100 -427 100 -427 122 -398 c 128,-1,99
 144 -369 144 -369 154.5 -358 c 128,-1,100
 165 -347 165 -347 185.5 -323.5 c 128,-1,101
 206 -300 206 -300 221.5 -287 c 128,-1,102
 237 -274 237 -274 258 -256.5 c 128,-1,103
 279 -239 279 -239 300.5 -224.5 c 128,-1,104
 322 -210 322 -210 346 -197 c 0,105,106
 403 -165 403 -165 474 -164 c 0,107,108
 504 -164 504 -164 560 -161.5 c 128,-1,109
 616 -159 616 -159 646 -159 c 0,110,111
 656 -159 656 -159 665 -164 c 128,-1,112
 674 -169 674 -169 679 -177.5 c 128,-1,113
 684 -186 684 -186 684 -196 c 0,62,63
EndSplineSet
Validated: 5
EndChar
